<svg xmlns="http://www.w3.org/2000/svg" width="36" height="36" id="currency" fill='#fff'>
  <path d="M17.969 1022.862c-3.603 0-6.469 2.906-6.469 6.5 0 3.596 2.866 6.5 6.469 6.5 3.602 0 6.531-2.907 6.531-6.5 0-3.59-2.93-6.5-6.531-6.5zm.031 2a.51.51 0 0 1 .5.5v.563c.965.21 1.75.891 1.75 1.875a.514.514 0 0 1-.5.5.514.514 0 0 1-.5-.5c0-.551-.505-1.017-1.219-1.032h-.062c-.715.013-1.219.48-1.219 1.032 0 .559.52 1.062 1.25 1.062.947 0 2.25.402 2.25 2.062 0 .998-.77 1.793-1.75 2v.437a.514.514 0 0 1-.5.5.514.514 0 0 1-.5-.5v-.562c-.965-.21-1.75-.892-1.75-1.875-.004-.264.236-.532.5-.532s.504.267.5.532c0 .559.52 1.03 1.25 1.03s1.25-.471 1.25-1.03c0-.56-.52-1.063-1.25-1.063h-.063c-1.177-.034-2.187-.922-2.187-2.062 0-.998.77-1.794 1.75-2v-.438c-.004-.262.238-.496.5-.5zm-14.625 12.156c-.216 0-.375.168-.375.407v8.53c0 .24.159.407.375.407h2.344c.216 0 .375-.168.375-.406v-8.531c0-.239-.159-.407-.375-.407zm28.25.375c-.126-.013-.246.01-.375.031a1.307 1.307 0 0 0-.5.188l-7.063 4.156c-.853 1.11-1.128 1.284-2.625 1.438-1.864.033-3.782.032-5.656.03v-1h5.563c.752 0 1.108-.18 1.375-.374.12-.093.21-.239.312-.375.122-.222.25-.442.25-.813 0-.63-.184-.966-.5-1.219-.316-.253-.818-.406-1.437-.406H18.25c-.716 0-1.473-.259-2.219-.5-.745-.241-1.5-.473-1.937-.5h-2.688c-.808 0-1.522.243-2.187.5-.666.258-1.278.563-1.938.563h-.187v6.218h16.875c.238-.01.42-.044.531-.094h.031c.175-.065.245-.094.25-.094l7.563-4.812c.634-.4.834-1.279.437-1.938l-.187-.343a1.359 1.359 0 0 0-.969-.657z" color="#000" font-family="sans-serif" font-weight="400" overflow="visible" style="text-indent:0;text-align:start;line-height:normal;text-transform:none;block-progression:tb" transform="translate(0 -1016.362)"></path>
</svg>
