<svg xmlns="http://www.w3.org/2000/svg"  viewBox="0 0 24 24" width="24px" height="24px" fill='#fff'><path d="M10.107 6.292l-6.704 9.766c-.128.187-.203.404-.217.631l-.183 2.984c-.027.438.178.858.54 1.106C3.754 20.926 4.001 21 4.25 21c.177 0 .354-.037.52-.113l2.719-1.243C7.695 19.55 7.872 19.401 8 19.214l6.704-9.765L10.107 6.292zM16.118 7.388l1.147-1.671c.213-.311.275-.701.167-1.062-.037-.123-.388-1.226-1.468-1.968S13.729 2.012 13.6 2.022c-.375.03-.718.228-.932.539l-1.147 1.67L16.118 7.388zM19.25 18.5A1.25 1.25 0 1019.25 21 1.25 1.25 0 1019.25 18.5zM15.25 18.5A1.25 1.25 0 1015.25 21 1.25 1.25 0 1015.25 18.5zM11.25 18.5A1.25 1.25 0 1011.25 21 1.25 1.25 0 1011.25 18.5z"/></svg>