<svg width="597" height="175" viewBox="0 0 597 175" fill="none" xmlns="http://www.w3.org/2000/svg">
<g clip-path="url(#clip0_2001_66)">
<path d="M237.398 92.6716C230.23 92.6716 223.36 91.733 216.79 89.8559C210.219 87.8933 204.928 85.3758 200.917 82.3036L207.958 66.6876C211.797 69.4182 216.32 71.6796 221.525 73.4716C226.816 75.1785 232.15 76.0319 237.525 76.0319C241.622 76.0319 244.907 75.6479 247.381 74.88C249.941 74.0266 251.818 72.8747 253.014 71.4239C254.208 69.9728 254.806 68.309 254.806 66.4319C254.806 64.0426 253.867 62.1651 251.99 60.7995C250.112 59.3487 247.638 58.1968 244.566 57.3434C241.494 56.4048 238.081 55.5514 234.326 54.7835C230.656 53.93 226.945 52.906 223.19 51.7113C219.52 50.5167 216.15 48.9808 213.078 47.1033C210.006 45.2259 207.488 42.7511 205.526 39.6793C203.648 36.6072 202.71 32.682 202.71 27.9034C202.71 22.7832 204.075 18.1324 206.806 13.9511C209.622 9.68436 213.803 6.31376 219.35 3.83933C224.982 1.27904 232.022 -0.000732422 240.47 -0.000732422C246.102 -0.000732422 251.648 0.681711 257.11 2.04698C262.571 3.32712 267.392 5.28971 271.573 7.93513L265.173 23.679C260.992 21.2897 256.81 19.5404 252.629 18.4313C248.448 17.2366 244.352 16.6389 240.341 16.6389C236.331 16.6389 233.045 17.1084 230.485 18.0473C227.925 18.9859 226.091 20.2233 224.981 21.7591C223.872 23.2099 223.317 24.9164 223.317 26.8794C223.317 29.1832 224.256 31.0606 226.133 32.5114C228.011 33.8767 230.485 34.9858 233.557 35.8393C236.629 36.6927 240 37.5461 243.669 38.3996C247.424 39.2526 251.136 40.2343 254.805 41.3434C258.56 42.4526 261.973 43.9461 265.045 45.8232C268.117 47.7007 270.592 50.1755 272.469 53.2472C274.431 56.3194 275.413 60.2018 275.413 64.8953C275.413 69.9296 274.005 74.5376 271.189 78.7193C268.373 82.9006 264.149 86.2712 258.517 88.8311C252.97 91.3914 245.93 92.6712 237.397 92.6712L237.398 92.6716ZM307.375 37.632H350.511V53.7598H307.375V37.632ZM308.911 74.496H357.678V91.1357H288.303V1.5359H356.015V18.1756H308.911V74.4956V74.496ZM372.897 91.1357V1.5359H393.633V91.1357H372.897ZM432.177 70.656L431.025 46.7198L473.905 1.5359H496.945L458.289 43.1358L446.769 55.4239L432.177 70.6563V70.656ZM413.617 91.1357V1.5359H434.225V91.1357H413.617ZM474.929 91.1357L443.057 52.0957L456.625 37.3755L499.121 91.1353H474.929V91.1357ZM547.357 92.6716C540.274 92.6716 533.704 91.5196 527.645 89.2155C521.671 86.9116 516.466 83.6689 512.029 79.4876C507.677 75.3059 504.264 70.3995 501.789 64.7674C499.399 59.1354 498.205 52.9915 498.205 46.3354C498.205 39.6793 499.399 33.5354 501.789 27.9034C504.263 22.2713 507.719 17.3645 512.157 13.1832C516.594 9.00192 521.799 5.75956 527.773 3.45536C533.746 1.15155 540.231 -0.000732422 547.229 -0.000732422C554.311 -0.000732422 560.796 1.15117 566.684 3.45536C572.658 5.75918 577.82 9.00192 582.172 13.1832C586.609 17.3645 590.065 22.2713 592.54 27.9034C595.015 33.4499 596.252 39.5938 596.252 46.3354C596.252 52.9915 595.015 59.1777 592.54 64.8957C590.065 70.5277 586.609 75.4342 582.172 79.6155C577.82 83.7117 572.658 86.9116 566.684 89.2155C560.796 91.5193 554.353 92.6716 547.356 92.6716H547.357ZM547.229 75.0075C551.239 75.0075 554.909 74.325 558.237 72.9598C561.65 71.5941 564.637 69.6315 567.197 67.0716C569.757 64.5117 571.72 61.4819 573.085 57.9839C574.536 54.485 575.261 50.6026 575.261 46.3358C575.261 42.069 574.536 38.1862 573.085 34.6877C571.72 31.1889 569.757 28.1599 567.197 25.6C564.722 23.04 561.779 21.0775 558.365 19.7118C554.952 18.3465 551.24 17.6641 547.229 17.6641C543.219 17.6641 539.506 18.3465 536.093 19.7118C532.765 21.0775 529.821 23.04 527.261 25.6C524.701 28.1599 522.696 31.1893 521.245 34.6877C519.88 38.1866 519.197 42.069 519.197 46.3358C519.197 50.5171 519.88 54.3999 521.245 57.9839C522.696 61.4823 524.658 64.5117 527.133 67.0716C529.693 69.6315 532.68 71.5941 536.093 72.9598C539.507 74.325 543.219 75.0075 547.229 75.0075H547.229Z" fill="#00007F"/>
<path d="M218.006 174.539C214.934 174.539 211.99 174.09 209.174 173.195C206.358 172.298 204.075 171.018 202.326 169.354L204.629 165.898C206.208 167.306 208.15 168.416 210.453 169.226C212.8 170.08 215.275 170.506 217.877 170.506C222.144 170.506 225.28 169.504 227.286 167.498C229.291 165.536 230.294 162.463 230.294 158.282V149.898L230.933 144.138L230.486 138.378V128.202H234.838V157.706C234.838 163.509 233.408 167.754 230.549 170.442C227.734 173.173 223.552 174.538 218.006 174.538L218.006 174.539ZM217.174 160.523C213.974 160.523 211.094 159.84 208.534 158.475C205.974 157.067 203.947 155.125 202.454 152.651C201.004 150.176 200.278 147.339 200.278 144.139C200.278 140.939 201.004 138.123 202.454 135.69C203.947 133.216 205.974 131.296 208.534 129.931C211.094 128.565 213.974 127.883 217.174 127.883C220.161 127.883 222.848 128.502 225.238 129.739C227.627 130.976 229.526 132.811 230.934 135.243C232.342 137.675 233.046 140.64 233.046 144.139C233.046 147.638 232.342 150.603 230.934 153.035C229.526 155.467 227.627 157.323 225.238 158.603C222.849 159.883 220.161 160.523 217.174 160.523V160.523ZM217.622 156.491C220.096 156.491 222.294 155.979 224.214 154.955C226.134 153.889 227.649 152.438 228.758 150.603C229.867 148.725 230.422 146.571 230.422 144.139C230.422 141.707 229.867 139.573 228.758 137.739C227.649 135.904 226.134 134.475 224.214 133.451C222.294 132.384 220.096 131.85 217.622 131.85C215.19 131.85 212.992 132.384 211.03 133.451C209.11 134.475 207.595 135.904 206.486 137.739C205.42 139.573 204.886 141.707 204.886 144.139C204.886 146.571 205.42 148.725 206.486 150.603C207.595 152.438 209.11 153.888 211.03 154.955C212.992 155.979 215.19 156.491 217.622 156.491ZM246.842 161.803V114.315H251.386V161.803H246.842ZM277.086 162.123C273.843 162.123 270.921 161.397 268.318 159.947C265.758 158.454 263.731 156.426 262.238 153.867C260.745 151.264 259.998 148.299 259.998 144.971C259.998 141.6 260.745 138.635 262.238 136.074C263.731 133.515 265.758 131.509 268.318 130.058C270.878 128.608 273.801 127.882 277.086 127.882C280.414 127.882 283.358 128.608 285.918 130.058C288.521 131.509 290.547 133.515 291.998 136.074C293.491 138.635 294.238 141.6 294.238 144.971C294.238 148.299 293.491 151.264 291.998 153.867C290.547 156.427 288.52 158.454 285.918 159.947C283.315 161.397 280.371 162.123 277.086 162.123ZM277.086 158.091C279.518 158.091 281.673 157.557 283.55 156.491C285.427 155.382 286.899 153.846 287.966 151.883C289.075 149.878 289.63 147.573 289.63 144.971C289.63 142.326 289.075 140.022 287.966 138.059C286.899 136.097 285.427 134.582 283.55 133.515C281.673 132.406 279.54 131.851 277.15 131.851C274.761 131.851 272.627 132.406 270.75 133.515C268.873 134.582 267.379 136.097 266.27 138.059C265.161 140.022 264.606 142.326 264.606 144.971C264.606 147.574 265.161 149.878 266.27 151.883C267.379 153.846 268.873 155.382 270.75 156.491C272.627 157.557 274.739 158.091 277.086 158.091ZM320.219 162.123C317.275 162.123 314.63 161.461 312.283 160.139C309.937 158.773 308.08 156.811 306.715 154.251C305.35 151.691 304.667 148.597 304.667 144.971C304.667 141.301 305.35 138.208 306.715 135.69C308.123 133.131 310 131.19 312.347 129.867C314.694 128.544 317.318 127.883 320.219 127.883C323.419 127.883 326.278 128.608 328.795 130.059C331.355 131.467 333.36 133.451 334.811 136.011C336.262 138.571 336.987 141.558 336.987 144.971C336.987 148.342 336.262 151.328 334.811 153.931C333.36 156.491 331.355 158.497 328.795 159.947C326.278 161.398 323.419 162.123 320.219 162.123V162.123ZM302.875 161.803V114.315H307.419V138.123L306.779 144.907L307.227 151.691V161.803H302.875V161.803ZM319.899 158.091C322.288 158.091 324.422 157.557 326.299 156.491C328.177 155.382 329.67 153.846 330.779 151.883C331.888 149.878 332.443 147.573 332.443 144.971C332.443 142.326 331.888 140.022 330.779 138.059C329.67 136.097 328.176 134.582 326.299 133.515C324.422 132.406 322.288 131.851 319.899 131.851C317.51 131.851 315.355 132.406 313.435 133.515C311.557 134.582 310.064 136.097 308.955 138.059C307.888 140.022 307.355 142.326 307.355 144.971C307.355 147.574 307.888 149.878 308.955 151.883C310.064 153.846 311.558 155.382 313.435 156.491C315.355 157.557 317.509 158.091 319.899 158.091ZM366.479 161.803V154.379L366.286 153.163V140.747C366.286 137.888 365.475 135.691 363.854 134.155C362.275 132.619 359.907 131.851 356.751 131.851C354.574 131.851 352.505 132.214 350.542 132.939C348.579 133.664 346.915 134.624 345.551 135.819L343.503 132.427C345.209 130.976 347.258 129.867 349.646 129.099C352.036 128.288 354.552 127.883 357.198 127.883C361.551 127.883 364.899 128.971 367.246 131.147C369.636 133.28 370.83 136.544 370.83 140.939V161.803H366.479L366.479 161.803ZM354.894 162.123C352.376 162.123 350.179 161.717 348.303 160.907C346.467 160.053 345.061 158.901 344.079 157.451C343.097 155.958 342.606 154.251 342.606 152.33C342.606 150.581 343.013 149.003 343.822 147.594C344.676 146.143 346.041 144.992 347.918 144.138C349.839 143.242 352.398 142.794 355.598 142.794H367.182V146.186H355.727C352.485 146.186 350.222 146.762 348.942 147.914C347.706 149.066 347.086 150.496 347.086 152.202C347.086 154.122 347.832 155.658 349.327 156.81C350.819 157.962 352.909 158.538 355.598 158.538C358.158 158.538 360.355 157.962 362.191 156.81C364.067 155.616 365.432 153.909 366.286 151.69L367.31 154.826C366.458 157.045 364.963 158.816 362.83 160.138C360.739 161.461 358.094 162.122 354.894 162.122V162.123ZM382.533 161.803V114.315H387.077V161.803H382.533Z" fill="#00007F"/>
<path d="M3.07276 55.9824C-1.35896 70.2479 -0.964396 89.8746 4.05557 104.919C10.8104 125.16 27.2968 143.792 46.4665 152.85C51.9613 155.445 61.4409 158.53 67.3624 159.648C73.8331 160.869 91.1597 160.695 97.5249 159.344C122.221 154.101 142.744 138.788 154.382 116.92C157.962 110.192 161.328 100.16 162.566 92.5211C163.651 85.8397 163.917 68.4226 162.91 69.977C162.576 70.4945 162.295 72.4662 162.289 74.3611C162.256 82.028 159.135 94.2597 154.976 103.017C144.079 125.963 121.185 143.283 96.4456 147.29C71.1298 151.392 45.7898 143.562 27.5594 126.005C15.8273 114.706 8.05679 100.624 4.59388 84.381C3.12761 77.5062 2.75499 63.3145 3.87815 57.1396C4.37939 54.3841 4.70359 52.0319 4.59653 51.912C4.49137 51.7932 3.80476 53.6253 3.07276 55.9824Z" fill="#00007F"/>
<path d="M67.6282 2.94136C60.2137 4.52112 55.0084 6.36682 48.9901 9.54789C19.9953 24.8745 5.40602 57.9132 13.6952 89.4705C20.1754 114.144 40.7084 134.141 65.3963 139.824C75.5898 142.17 89.2001 142.047 98.6575 139.522L103.046 138.351L95.7616 138.294C76.4667 138.144 60.9347 131.873 47.1761 118.677C33.5576 105.615 26.255 88.1495 26.255 68.6363C26.255 39.2296 45.2669 12.8788 73.3893 3.30831C77.6735 1.85074 77.8078 1.75125 75.4627 1.77773C74.0838 1.79362 70.5574 2.31793 67.6279 2.94174L67.6282 2.94136Z" fill="#00007F"/>
<path d="M86.9496 4.35335C84.2335 12.8279 85.5378 23.4572 90.5241 33.4786C94.1414 40.7494 98.1271 46.6754 108.298 59.9157C119.723 74.7876 123.531 80.2316 126.592 86.0702C133.604 99.4422 134.36 109.925 129.079 120.531C128.107 122.48 126.631 124.994 125.798 126.117L124.283 128.159L125.995 127.055C129.319 124.913 135.443 119.581 139.119 115.626C146.187 108.025 149.515 100.434 149.482 91.9962C149.443 82.6758 145.103 73.3028 135.302 61.3748C134.381 60.2509 126.073 51.5891 116.843 42.1268C95.6515 20.3987 91.5485 14.9426 89.1233 5.25747C88.6179 3.24003 88.1443 1.51992 88.0701 1.43594C87.9952 1.35196 87.4913 2.6654 86.95 4.35335H86.9496Z" fill="#00007F"/>
<path d="M123.398 94.8611C123.398 98.8771 121.888 105.899 120.29 109.309C118.076 114.037 115.726 116.524 111.459 118.654C107.731 120.514 107.391 120.574 100.7 120.534C91.6195 120.481 85.9818 118.996 69.6754 112.36C67.686 111.551 70.7978 115.352 75.0366 118.909C82.2779 124.984 90.9673 128.315 100.986 128.857C123.662 130.086 135.131 114.748 125.705 95.8012C124.743 93.8692 123.83 92.2876 123.677 92.2876C123.523 92.2876 123.398 93.4448 123.398 94.8611Z" fill="#00007F"/>
<path d="M157.474 17.8919C150.084 19.1573 145.002 21.3719 141.088 25.0319C134.491 31.2011 133.086 39.4093 136.372 52.5827L137.683 57.8315L138.383 51.4955C139.506 41.342 141.988 35.3052 147.639 28.9692C151.152 25.0304 154.189 22.733 160.158 19.5039C163.981 17.4331 164.082 17.3279 162.169 17.3786C161.063 17.4077 158.95 17.6385 157.473 17.8919H157.474Z" fill="#00007F"/>
<path d="M136.282 20.3758C136.282 26.2159 131.284 30.9491 125.121 30.9491C118.957 30.9491 113.96 26.2159 113.96 20.3758C113.96 14.5357 118.957 9.80249 125.121 9.80249C131.284 9.80249 136.282 14.5357 136.282 20.3758Z" fill="#00007F"/>
</g>
<defs>
<clipPath id="clip0_2001_66">
<rect width="596.255" height="174.539" fill="white"/>
</clipPath>
</defs>
</svg>
